<svg xmlns="http://www.w3.org/2000/svg" width="1600" height="900" viewBox="0 0 1600 900" role="img" aria-label="Dark landing page illustration">
  <defs>
    <linearGradient id="bg-grad" x1="0" y1="0" x2="1" y2="1">
      <stop offset="0%" stop-color="#0f172a"/>
      <stop offset="100%" stop-color="#111827"/>
    </linearGradient>
    <linearGradient id="card-grad" x1="0" y1="0" x2="1" y2="1">
      <stop offset="0%" stop-color="#1f2937"/>
      <stop offset="100%" stop-color="#0b1220"/>
    </linearGradient>
    <linearGradient id="accent-grad" x1="0" y1="0" x2="1" y2="0">
      <stop offset="0%" stop-color="#22d3ee"/>
      <stop offset="100%" stop-color="#6366f1"/>
    </linearGradient>
    <filter id="soft" x="-20%" y="-20%" width="140%" height="140%">
      <feGaussianBlur in="SourceGraphic" stdDeviation="8"/>
    </filter>
  </defs>

  <!-- Background -->
  <rect width="1600" height="900" fill="url(#bg-grad)" />
  
  <!-- Header / Navbar -->
  <rect x="120" y="90" width="1360" height="80" rx="16" fill="#0b1220" opacity="0.9" />
  <circle cx="160" cy="130" r="10" fill="#ef4444" />
  <circle cx="190" cy="130" r="10" fill="#f59e0b" />
  <circle cx="220" cy="130" r="10" fill="#10b981" />
  <rect x="280" y="115" width="160" height="30" rx="8" fill="#e5e7eb" opacity="0.08" />
  <rect x="460" y="115" width="140" height="30" rx="8" fill="#e5e7eb" opacity="0.08" />
  <rect x="610" y="115" width="120" height="30" rx="8" fill="#e5e7eb" opacity="0.08" />
  <rect x="1250" y="112" width="200" height="36" rx="10" fill="url(#accent-grad)" opacity="0.9" />

  <!-- Hero section -->
  <rect x="120" y="210" width="820" height="420" rx="24" fill="url(#card-grad)" />
  <rect x="160" y="260" width="360" height="24" rx="6" fill="#e5e7eb" opacity="0.2" />
  <rect x="160" y="300" width="520" height="20" rx="6" fill="#e5e7eb" opacity="0.12" />
  <rect x="160" y="330" width="480" height="20" rx="6" fill="#e5e7eb" opacity="0.12" />
  <rect x="160" y="380" width="240" height="56" rx="12" fill="url(#accent-grad)" />

  <!-- Hero mock image -->
  <rect x="960" y="210" width="520" height="420" rx="24" fill="#0b1220" />
  <rect x="980" y="230" width="480" height="160" rx="16" fill="#111827" />
  <rect x="980" y="410" width="220" height="200" rx="16" fill="#111827" />
  <rect x="1240" y="410" width="220" height="200" rx="16" fill="#111827" />

  <!-- Feature cards -->
  <g filter="url(#soft)">
    <rect x="120" y="660" width="340" height="160" rx="20" fill="#0b1220" opacity="0.9" />
    <rect x="480" y="660" width="340" height="160" rx="20" fill="#0b1220" opacity="0.9" />
    <rect x="840" y="660" width="340" height="160" rx="20" fill="#0b1220" opacity="0.9" />
    <rect x="1200" y="660" width="280" height="160" rx="20" fill="#0b1220" opacity="0.9" />
  </g>

  <!-- Accent lines -->
  <rect x="120" y="860" width="600" height="6" rx="3" fill="url(#accent-grad)" opacity="0.8" />
  <rect x="1240" y="140" width="210" height="4" rx="2" fill="#e5e7eb" opacity="0.3" />

  <!-- Decorative shapes -->
  <circle cx="1480" cy="120" r="60" fill="#0ea5e9" opacity="0.06" />
  <circle cx="140" cy="760" r="80" fill="#6366f1" opacity="0.06" />
</svg>
