<svg xmlns="http://www.w3.org/2000/svg" xmlns:xlink="http://www.w3.org/1999/xlink" width="500" zoomAndPan="magnify" viewBox="0 0 375 374.999991" height="500" preserveAspectRatio="xMidYMid meet" version="1.0"><defs><g/><clipPath id="51374df1cc"><rect x="0" width="212" y="0" height="172"/></clipPath><clipPath id="17b0f9d687"><rect x="0" width="74" y="0" height="274"/></clipPath><clipPath id="f76c924a9a"><rect x="0" width="78" y="0" height="274"/></clipPath></defs><g transform="matrix(1, 0, 0, 1, 76, 85)"><g clip-path="url(#51374df1cc)"><g fill="#f7f6f8" fill-opacity="1"><g transform="translate(0.961535, 136.268611)"><g><path d="M 100.125 -45.265625 C 99.113281 -30.484375 94.617188 -18.910156 86.640625 -10.546875 C 78.671875 -2.179688 67.492188 2 53.109375 2 C 45.367188 2 38.566406 0.550781 32.703125 -2.34375 C 26.847656 -5.238281 21.925781 -9.207031 17.9375 -14.25 C 13.945312 -19.289062 10.9375 -25.09375 8.90625 -31.65625 C 6.875 -38.21875 5.859375 -45.210938 5.859375 -52.640625 C 5.859375 -60.066406 6.875 -67.0625 8.90625 -73.625 C 10.9375 -80.195312 13.945312 -85.984375 17.9375 -90.984375 C 21.925781 -95.984375 26.847656 -99.929688 32.703125 -102.828125 C 38.566406 -105.722656 45.367188 -107.171875 53.109375 -107.171875 C 62.722656 -107.171875 70.867188 -105.253906 77.546875 -101.421875 C 84.234375 -97.585938 89.472656 -92.132812 93.265625 -85.0625 C 97.054688 -77.988281 99.34375 -69.609375 100.125 -59.921875 L 84.296875 -59.921875 C 83.128906 -70.703125 80.0625 -78.632812 75.09375 -83.71875 C 70.132812 -88.800781 62.804688 -91.34375 53.109375 -91.34375 C 45.523438 -91.34375 39.445312 -89.660156 34.875 -86.296875 C 30.300781 -82.929688 26.976562 -78.335938 24.90625 -72.515625 C 22.84375 -66.691406 21.8125 -60.066406 21.8125 -52.640625 C 21.8125 -44.828125 22.941406 -37.988281 25.203125 -32.125 C 27.472656 -26.257812 30.929688 -21.742188 35.578125 -18.578125 C 40.234375 -15.410156 46.078125 -13.828125 53.109375 -13.828125 C 62.804688 -13.828125 70.175781 -16.269531 75.21875 -21.15625 C 80.257812 -26.039062 83.285156 -34.078125 84.296875 -45.265625 Z M 100.125 -45.265625 "/></g></g></g><g fill="#f7f6f8" fill-opacity="1"><g transform="translate(105.77923, 136.268611)"><g><path d="M 100.125 -45.265625 C 99.113281 -30.484375 94.617188 -18.910156 86.640625 -10.546875 C 78.671875 -2.179688 67.492188 2 53.109375 2 C 45.367188 2 38.566406 0.550781 32.703125 -2.34375 C 26.847656 -5.238281 21.925781 -9.207031 17.9375 -14.25 C 13.945312 -19.289062 10.9375 -25.09375 8.90625 -31.65625 C 6.875 -38.21875 5.859375 -45.210938 5.859375 -52.640625 C 5.859375 -60.066406 6.875 -67.0625 8.90625 -73.625 C 10.9375 -80.195312 13.945312 -85.984375 17.9375 -90.984375 C 21.925781 -95.984375 26.847656 -99.929688 32.703125 -102.828125 C 38.566406 -105.722656 45.367188 -107.171875 53.109375 -107.171875 C 62.722656 -107.171875 70.867188 -105.253906 77.546875 -101.421875 C 84.234375 -97.585938 89.472656 -92.132812 93.265625 -85.0625 C 97.054688 -77.988281 99.34375 -69.609375 100.125 -59.921875 L 84.296875 -59.921875 C 83.128906 -70.703125 80.0625 -78.632812 75.09375 -83.71875 C 70.132812 -88.800781 62.804688 -91.34375 53.109375 -91.34375 C 45.523438 -91.34375 39.445312 -89.660156 34.875 -86.296875 C 30.300781 -82.929688 26.976562 -78.335938 24.90625 -72.515625 C 22.84375 -66.691406 21.8125 -60.066406 21.8125 -52.640625 C 21.8125 -44.828125 22.941406 -37.988281 25.203125 -32.125 C 27.472656 -26.257812 30.929688 -21.742188 35.578125 -18.578125 C 40.234375 -15.410156 46.078125 -13.828125 53.109375 -13.828125 C 62.804688 -13.828125 70.175781 -16.269531 75.21875 -21.15625 C 80.257812 -26.039062 83.285156 -34.078125 84.296875 -45.265625 Z M 100.125 -45.265625 "/></g></g></g></g></g><g transform="matrix(1, 0, 0, 1, 11, 13)"><g clip-path="url(#17b0f9d687)"><g fill="#a678fe" fill-opacity="1"><g transform="translate(0.846592, 216.809346)"><g><path d="M 7.5 -57.40625 L 7.5 -73.734375 L 21.203125 -73.734375 L 21.203125 -93.8125 C 21.203125 -106.0625 24.421875 -115.375 30.859375 -121.75 C 37.304688 -128.132812 46.59375 -131.328125 58.71875 -131.328125 L 64.71875 -131.328125 L 64.71875 -113.125 L 42.96875 -113.125 L 42.96875 -81.984375 C 42.96875 -76.984375 41.773438 -73.195312 39.390625 -70.625 C 37.015625 -68.0625 34.265625 -66.78125 31.140625 -66.78125 L 31.140625 -64.34375 C 34.140625 -64.34375 36.859375 -63.0625 39.296875 -60.5 C 41.742188 -57.9375 42.96875 -54.15625 42.96875 -49.15625 L 42.96875 -18.765625 L 64.71875 -18.765625 L 64.71875 0 L 58.71875 0 C 46.59375 0 37.304688 -3.21875 30.859375 -9.65625 C 24.421875 -16.101562 21.203125 -25.390625 21.203125 -37.515625 L 21.203125 -57.40625 Z M 7.5 -57.40625 "/></g></g></g></g></g><g transform="matrix(1, 0, 0, 1, 290, 13)"><g clip-path="url(#f76c924a9a)"><g fill="#a678fe" fill-opacity="1"><g transform="translate(0.93269, 216.809346)"><g><path d="M 66.59375 -57.40625 L 52.90625 -57.40625 L 52.90625 -37.515625 C 52.90625 -25.390625 49.710938 -16.101562 43.328125 -9.65625 C 36.953125 -3.21875 27.640625 0 15.390625 0 L 9.375 0 L 9.375 -18.765625 L 31.140625 -18.765625 L 31.140625 -49.15625 C 31.140625 -54.15625 32.359375 -57.9375 34.796875 -60.5 C 37.234375 -63.0625 39.957031 -64.34375 42.96875 -64.34375 L 42.96875 -66.78125 C 39.832031 -66.78125 37.078125 -68.0625 34.703125 -70.625 C 32.328125 -73.195312 31.140625 -76.984375 31.140625 -81.984375 L 31.140625 -113.125 L 9.375 -113.125 L 9.375 -131.328125 L 15.390625 -131.328125 C 27.640625 -131.328125 36.953125 -128.132812 43.328125 -121.75 C 49.710938 -115.375 52.90625 -106.0625 52.90625 -93.8125 L 52.90625 -73.734375 L 66.59375 -73.734375 Z M 66.59375 -57.40625 "/></g></g></g></g></g><g fill="#ffffff" fill-opacity="1"><g transform="translate(38.742206, 293.035762)"><g><path d="M 25.625 -11.3125 C 25.519531 -8.894531 24.976562 -6.800781 24 -5.03125 C 23.019531 -3.257812 21.65625 -1.890625 19.90625 -0.921875 C 18.15625 0.0351562 16.050781 0.515625 13.59375 0.515625 C 11.613281 0.515625 9.875 0.144531 8.375 -0.59375 C 6.875 -1.332031 5.613281 -2.347656 4.59375 -3.640625 C 3.570312 -4.929688 2.800781 -6.414062 2.28125 -8.09375 C 1.757812 -9.78125 1.5 -11.570312 1.5 -13.46875 C 1.5 -15.363281 1.757812 -17.148438 2.28125 -18.828125 C 2.800781 -20.515625 3.570312 -22 4.59375 -23.28125 C 5.613281 -24.5625 6.875 -25.570312 8.375 -26.3125 C 9.875 -27.050781 11.613281 -27.421875 13.59375 -27.421875 C 16.050781 -27.421875 18.132812 -26.9375 19.84375 -25.96875 C 21.550781 -25 22.890625 -23.628906 23.859375 -21.859375 C 24.828125 -20.085938 25.414062 -18 25.625 -15.59375 L 22.65625 -15.59375 C 22.351562 -18.757812 21.476562 -21.070312 20.03125 -22.53125 C 18.59375 -23.988281 16.445312 -24.71875 13.59375 -24.71875 C 11.53125 -24.71875 9.820312 -24.253906 8.46875 -23.328125 C 7.125 -22.410156 6.125 -21.113281 5.46875 -19.4375 C 4.820312 -17.757812 4.5 -15.769531 4.5 -13.46875 C 4.5 -11.164062 4.820312 -9.171875 5.46875 -7.484375 C 6.125 -5.796875 7.125 -4.488281 8.46875 -3.5625 C 9.820312 -2.644531 11.53125 -2.1875 13.59375 -2.1875 C 16.445312 -2.1875 18.632812 -2.90625 20.15625 -4.34375 C 21.675781 -5.789062 22.507812 -8.113281 22.65625 -11.3125 Z M 25.625 -11.3125 "/></g></g></g><g fill="#ffffff" fill-opacity="1"><g transform="translate(70.362207, 293.035762)"><g><path d="M 12.15625 0.296875 C 10.1875 0.296875 8.394531 -0.101562 6.78125 -0.90625 C 5.175781 -1.71875 3.894531 -2.925781 2.9375 -4.53125 C 1.976562 -6.132812 1.5 -8.132812 1.5 -10.53125 C 1.5 -12.90625 1.976562 -14.894531 2.9375 -16.5 C 3.894531 -18.101562 5.175781 -19.300781 6.78125 -20.09375 C 8.394531 -20.894531 10.1875 -21.296875 12.15625 -21.296875 C 14.113281 -21.296875 15.898438 -20.894531 17.515625 -20.09375 C 19.140625 -19.300781 20.429688 -18.101562 21.390625 -16.5 C 22.347656 -14.894531 22.828125 -12.90625 22.828125 -10.53125 C 22.828125 -8.132812 22.347656 -6.132812 21.390625 -4.53125 C 20.429688 -2.925781 19.140625 -1.71875 17.515625 -0.90625 C 15.898438 -0.101562 14.113281 0.296875 12.15625 0.296875 Z M 4.34375 -10.53125 C 4.34375 -7.988281 5.023438 -5.972656 6.390625 -4.484375 C 7.753906 -2.992188 9.675781 -2.25 12.15625 -2.25 C 14.632812 -2.25 16.554688 -2.992188 17.921875 -4.484375 C 19.296875 -5.972656 19.984375 -7.988281 19.984375 -10.53125 C 19.984375 -12.207031 19.671875 -13.660156 19.046875 -14.890625 C 18.429688 -16.117188 17.539062 -17.066406 16.375 -17.734375 C 15.21875 -18.410156 13.8125 -18.75 12.15625 -18.75 C 9.675781 -18.75 7.753906 -18.003906 6.390625 -16.515625 C 5.023438 -15.023438 4.34375 -13.03125 4.34375 -10.53125 Z M 4.34375 -10.53125 "/></g></g></g><g fill="#ffffff" fill-opacity="1"><g transform="translate(99.192207, 293.035762)"><g><path d="M 11.28125 0.59375 C 10.125 0.59375 8.960938 0.367188 7.796875 -0.078125 C 6.640625 -0.523438 5.582031 -1.203125 4.625 -2.109375 C 3.675781 -3.023438 2.914062 -4.15625 2.34375 -5.5 C 1.78125 -6.851562 1.5 -8.429688 1.5 -10.234375 C 1.5 -12.015625 1.78125 -13.578125 2.34375 -14.921875 C 2.914062 -16.273438 3.675781 -17.398438 4.625 -18.296875 C 5.582031 -19.203125 6.640625 -19.878906 7.796875 -20.328125 C 8.960938 -20.773438 10.125 -21 11.28125 -21 C 12.65625 -21 13.929688 -20.785156 15.109375 -20.359375 C 16.296875 -19.941406 17.304688 -19.285156 18.140625 -18.390625 C 18.984375 -17.492188 19.585938 -16.300781 19.953125 -14.8125 L 20.546875 -14.8125 L 19.953125 -21 L 19.953125 -26.96875 L 23.015625 -26.96875 L 22.953125 0 L 19.953125 0 L 20.546875 -5.578125 L 19.953125 -5.578125 C 19.585938 -4.117188 18.984375 -2.929688 18.140625 -2.015625 C 17.304688 -1.109375 16.296875 -0.445312 15.109375 -0.03125 C 13.929688 0.382812 12.65625 0.59375 11.28125 0.59375 Z M 4.34375 -10.234375 C 4.34375 -8.628906 4.648438 -7.203125 5.265625 -5.953125 C 5.890625 -4.703125 6.785156 -3.722656 7.953125 -3.015625 C 9.128906 -2.304688 10.539062 -1.953125 12.1875 -1.953125 C 13.300781 -1.953125 14.328125 -2.175781 15.265625 -2.625 C 16.210938 -3.070312 17.035156 -3.679688 17.734375 -4.453125 C 18.429688 -5.222656 18.972656 -6.101562 19.359375 -7.09375 C 19.753906 -8.082031 19.953125 -9.128906 19.953125 -10.234375 C 19.953125 -11.753906 19.613281 -13.132812 18.9375 -14.375 C 18.269531 -15.613281 17.351562 -16.601562 16.1875 -17.34375 C 15.019531 -18.082031 13.6875 -18.453125 12.1875 -18.453125 C 10.582031 -18.453125 9.1875 -18.101562 8 -17.40625 C 6.820312 -16.71875 5.914062 -15.753906 5.28125 -14.515625 C 4.65625 -13.273438 4.34375 -11.847656 4.34375 -10.234375 Z M 4.34375 -10.234375 "/></g></g></g><g fill="#ffffff" fill-opacity="1"><g transform="translate(128.2022, 293.035762)"><g><path d="M 1.5 -10.53125 C 1.5 -12.007812 1.78125 -13.398438 2.34375 -14.703125 C 2.90625 -16.003906 3.675781 -17.148438 4.65625 -18.140625 C 5.632812 -19.128906 6.757812 -19.898438 8.03125 -20.453125 C 9.3125 -21.015625 10.6875 -21.296875 12.15625 -21.296875 C 14.113281 -21.296875 15.84375 -20.875 17.34375 -20.03125 C 18.84375 -19.195312 20.015625 -17.9375 20.859375 -16.25 C 21.710938 -14.570312 22.140625 -12.472656 22.140625 -9.953125 L 4.34375 -9.953125 C 4.425781 -8.472656 4.78125 -7.15625 5.40625 -6 C 6.039062 -4.84375 6.925781 -3.925781 8.0625 -3.25 C 9.207031 -2.582031 10.570312 -2.25 12.15625 -2.25 C 14.351562 -2.25 15.984375 -2.679688 17.046875 -3.546875 C 18.117188 -4.421875 18.816406 -5.71875 19.140625 -7.4375 L 22.140625 -7.4375 C 21.941406 -6.039062 21.425781 -4.75 20.59375 -3.5625 C 19.757812 -2.382812 18.632812 -1.445312 17.21875 -0.75 C 15.800781 -0.0507812 14.113281 0.296875 12.15625 0.296875 C 10.6875 0.296875 9.3125 0.0195312 8.03125 -0.53125 C 6.757812 -1.09375 5.632812 -1.867188 4.65625 -2.859375 C 3.675781 -3.847656 2.90625 -5 2.34375 -6.3125 C 1.78125 -7.625 1.5 -9.03125 1.5 -10.53125 Z M 4.53125 -12.515625 L 18.875 -12.515625 C 18.59375 -14.109375 18.128906 -15.359375 17.484375 -16.265625 C 16.847656 -17.179688 16.070312 -17.820312 15.15625 -18.1875 C 14.25 -18.5625 13.25 -18.75 12.15625 -18.75 C 10.75 -18.75 9.515625 -18.476562 8.453125 -17.9375 C 7.398438 -17.394531 6.539062 -16.660156 5.875 -15.734375 C 5.21875 -14.804688 4.769531 -13.734375 4.53125 -12.515625 Z M 4.53125 -12.515625 "/></g></g></g><g fill="#ffffff" fill-opacity="1"><g transform="translate(156.342201, 293.035762)"><g><path d="M 25.625 -11.3125 C 25.519531 -8.894531 24.976562 -6.800781 24 -5.03125 C 23.019531 -3.257812 21.65625 -1.890625 19.90625 -0.921875 C 18.15625 0.0351562 16.050781 0.515625 13.59375 0.515625 C 11.613281 0.515625 9.875 0.144531 8.375 -0.59375 C 6.875 -1.332031 5.613281 -2.347656 4.59375 -3.640625 C 3.570312 -4.929688 2.800781 -6.414062 2.28125 -8.09375 C 1.757812 -9.78125 1.5 -11.570312 1.5 -13.46875 C 1.5 -15.363281 1.757812 -17.148438 2.28125 -18.828125 C 2.800781 -20.515625 3.570312 -22 4.59375 -23.28125 C 5.613281 -24.5625 6.875 -25.570312 8.375 -26.3125 C 9.875 -27.050781 11.613281 -27.421875 13.59375 -27.421875 C 16.050781 -27.421875 18.132812 -26.9375 19.84375 -25.96875 C 21.550781 -25 22.890625 -23.628906 23.859375 -21.859375 C 24.828125 -20.085938 25.414062 -18 25.625 -15.59375 L 22.65625 -15.59375 C 22.351562 -18.757812 21.476562 -21.070312 20.03125 -22.53125 C 18.59375 -23.988281 16.445312 -24.71875 13.59375 -24.71875 C 11.53125 -24.71875 9.820312 -24.253906 8.46875 -23.328125 C 7.125 -22.410156 6.125 -21.113281 5.46875 -19.4375 C 4.820312 -17.757812 4.5 -15.769531 4.5 -13.46875 C 4.5 -11.164062 4.820312 -9.171875 5.46875 -7.484375 C 6.125 -5.796875 7.125 -4.488281 8.46875 -3.5625 C 9.820312 -2.644531 11.53125 -2.1875 13.59375 -2.1875 C 16.445312 -2.1875 18.632812 -2.90625 20.15625 -4.34375 C 21.675781 -5.789062 22.507812 -8.113281 22.65625 -11.3125 Z M 25.625 -11.3125 "/></g></g></g><g fill="#ffffff" fill-opacity="1"><g transform="translate(187.962202, 293.035762)"><g><path d="M 1.5 0 L 1.5 -21 L 4.34375 -21 L 3.75 -16.953125 L 4.34375 -16.953125 C 4.6875 -17.753906 5.175781 -18.453125 5.8125 -19.046875 C 6.457031 -19.648438 7.3125 -20.125 8.375 -20.46875 C 9.445312 -20.820312 10.773438 -21 12.359375 -21 L 12.359375 -18.296875 C 9.535156 -18.296875 7.5 -17.691406 6.25 -16.484375 C 5 -15.273438 4.375 -13.367188 4.375 -10.765625 L 4.34375 0 Z M 1.5 0 "/></g></g></g><g fill="#ffffff" fill-opacity="1"><g transform="translate(205.422211, 293.035762)"><g><path d="M 1.5 -6 C 1.5 -8.257812 2.40625 -9.960938 4.21875 -11.109375 C 6.03125 -12.265625 8.734375 -13.09375 12.328125 -13.59375 L 16.4375 -14.15625 C 16.4375 -15.84375 15.984375 -17.03125 15.078125 -17.71875 C 14.179688 -18.40625 12.984375 -18.75 11.484375 -18.75 C 10.484375 -18.75 9.546875 -18.585938 8.671875 -18.265625 C 7.804688 -17.953125 7.109375 -17.414062 6.578125 -16.65625 C 6.054688 -15.894531 5.796875 -14.84375 5.796875 -13.5 L 2.796875 -13.5 C 2.796875 -14.957031 3.101562 -16.269531 3.71875 -17.4375 C 4.34375 -18.613281 5.296875 -19.550781 6.578125 -20.25 C 7.867188 -20.945312 9.515625 -21.296875 11.515625 -21.296875 C 13.515625 -21.296875 15.085938 -20.941406 16.234375 -20.234375 C 17.390625 -19.523438 18.210938 -18.539062 18.703125 -17.28125 C 19.191406 -16.019531 19.4375 -14.570312 19.4375 -12.9375 L 19.4375 -6.875 C 19.4375 -5.53125 19.535156 -4.472656 19.734375 -3.703125 C 19.941406 -2.929688 20.34375 -2.546875 20.9375 -2.546875 L 21.234375 -2.546875 L 21.234375 0 L 20.9375 0 C 19.9375 0 19.164062 -0.179688 18.625 -0.546875 C 18.082031 -0.921875 17.707031 -1.601562 17.5 -2.59375 C 17.289062 -3.582031 17.1875 -5.007812 17.1875 -6.875 L 16.59375 -6.875 C 16.289062 -5.351562 15.722656 -4.054688 14.890625 -2.984375 C 14.066406 -1.910156 13.085938 -1.085938 11.953125 -0.515625 C 10.828125 0.046875 9.660156 0.328125 8.453125 0.328125 C 7.253906 0.328125 6.125 0.113281 5.0625 -0.3125 C 4.007812 -0.738281 3.148438 -1.414062 2.484375 -2.34375 C 1.828125 -3.28125 1.5 -4.5 1.5 -6 Z M 4.5 -6 C 4.5 -4.800781 4.820312 -3.875 5.46875 -3.21875 C 6.125 -2.570312 7.222656 -2.25 8.765625 -2.25 C 9.523438 -2.25 10.316406 -2.367188 11.140625 -2.609375 C 11.972656 -2.847656 12.769531 -3.296875 13.53125 -3.953125 C 14.289062 -4.617188 14.9375 -5.566406 15.46875 -6.796875 C 16 -8.023438 16.332031 -9.617188 16.46875 -11.578125 L 12.328125 -11.046875 C 10.671875 -10.816406 9.328125 -10.535156 8.296875 -10.203125 C 7.265625 -9.878906 6.472656 -9.503906 5.921875 -9.078125 C 5.367188 -8.660156 4.992188 -8.191406 4.796875 -7.671875 C 4.597656 -7.160156 4.5 -6.601562 4.5 -6 Z M 4.5 -6 "/></g></g></g><g fill="#ffffff" fill-opacity="1"><g transform="translate(231.46221, 293.035762)"><g><path d="M 13.5 -19.796875 L 13.5 -17.546875 L 7.34375 -17.546875 L 7.34375 0 L 4.5 0 L 4.5 -17.546875 L 1.5 -17.546875 L 1.5 -19.796875 L 4.5 -19.796875 C 4.5 -21.753906 4.664062 -23.25 5 -24.28125 C 5.34375 -25.3125 5.9375 -26.015625 6.78125 -26.390625 C 7.625 -26.773438 8.796875 -26.96875 10.296875 -26.96875 L 13.5 -26.96875 L 13.5 -24.421875 L 10.296875 -24.421875 C 9.804688 -24.421875 9.375 -24.390625 9 -24.328125 C 8.632812 -24.265625 8.332031 -24.097656 8.09375 -23.828125 C 7.851562 -23.566406 7.664062 -23.117188 7.53125 -22.484375 C 7.40625 -21.859375 7.34375 -20.960938 7.34375 -19.796875 Z M 13.5 -19.796875 "/></g></g></g><g fill="#ffffff" fill-opacity="1"><g transform="translate(250.962209, 293.035762)"><g><path d="M 13.953125 -17.546875 L 8.84375 -17.546875 L 8.84375 -6.0625 C 8.84375 -5.15625 8.898438 -4.445312 9.015625 -3.9375 C 9.128906 -3.4375 9.34375 -3.078125 9.65625 -2.859375 C 9.976562 -2.648438 10.46875 -2.546875 11.125 -2.546875 L 12.75 -2.546875 L 12.75 0 L 11.125 0 C 9.75 0 8.691406 -0.175781 7.953125 -0.53125 C 7.210938 -0.894531 6.703125 -1.515625 6.421875 -2.390625 C 6.140625 -3.273438 6 -4.5 6 -6.0625 L 6 -17.546875 L 1.5 -17.546875 L 1.5 -19.796875 L 6 -19.796875 L 6 -26.96875 L 8.84375 -26.96875 L 8.84375 -19.796875 L 13.953125 -19.796875 Z M 13.953125 -17.546875 "/></g></g></g><g fill="#ffffff" fill-opacity="1"><g transform="translate(270.012225, 293.035762)"><g><path d="M 1.5 -10.53125 C 1.5 -12.007812 1.78125 -13.398438 2.34375 -14.703125 C 2.90625 -16.003906 3.675781 -17.148438 4.65625 -18.140625 C 5.632812 -19.128906 6.757812 -19.898438 8.03125 -20.453125 C 9.3125 -21.015625 10.6875 -21.296875 12.15625 -21.296875 C 14.113281 -21.296875 15.84375 -20.875 17.34375 -20.03125 C 18.84375 -19.195312 20.015625 -17.9375 20.859375 -16.25 C 21.710938 -14.570312 22.140625 -12.472656 22.140625 -9.953125 L 4.34375 -9.953125 C 4.425781 -8.472656 4.78125 -7.15625 5.40625 -6 C 6.039062 -4.84375 6.925781 -3.925781 8.0625 -3.25 C 9.207031 -2.582031 10.570312 -2.25 12.15625 -2.25 C 14.351562 -2.25 15.984375 -2.679688 17.046875 -3.546875 C 18.117188 -4.421875 18.816406 -5.71875 19.140625 -7.4375 L 22.140625 -7.4375 C 21.941406 -6.039062 21.425781 -4.75 20.59375 -3.5625 C 19.757812 -2.382812 18.632812 -1.445312 17.21875 -0.75 C 15.800781 -0.0507812 14.113281 0.296875 12.15625 0.296875 C 10.6875 0.296875 9.3125 0.0195312 8.03125 -0.53125 C 6.757812 -1.09375 5.632812 -1.867188 4.65625 -2.859375 C 3.675781 -3.847656 2.90625 -5 2.34375 -6.3125 C 1.78125 -7.625 1.5 -9.03125 1.5 -10.53125 Z M 4.53125 -12.515625 L 18.875 -12.515625 C 18.59375 -14.109375 18.128906 -15.359375 17.484375 -16.265625 C 16.847656 -17.179688 16.070312 -17.820312 15.15625 -18.1875 C 14.25 -18.5625 13.25 -18.75 12.15625 -18.75 C 10.75 -18.75 9.515625 -18.476562 8.453125 -17.9375 C 7.398438 -17.394531 6.539062 -16.660156 5.875 -15.734375 C 5.21875 -14.804688 4.769531 -13.734375 4.53125 -12.515625 Z M 4.53125 -12.515625 "/></g></g></g><g fill="#ffffff" fill-opacity="1"><g transform="translate(298.152239, 293.035762)"><g><path d="M 1.5 0 L 1.5 -21 L 4.34375 -21 L 3.75 -16.953125 L 4.34375 -16.953125 C 4.6875 -17.753906 5.175781 -18.453125 5.8125 -19.046875 C 6.457031 -19.648438 7.3125 -20.125 8.375 -20.46875 C 9.445312 -20.820312 10.773438 -21 12.359375 -21 L 12.359375 -18.296875 C 9.535156 -18.296875 7.5 -17.691406 6.25 -16.484375 C 5 -15.273438 4.375 -13.367188 4.375 -10.765625 L 4.34375 0 Z M 1.5 0 "/></g></g></g><g fill="#ffffff" fill-opacity="1"><g transform="translate(315.312241, 293.035762)"><g><path d="M 10.796875 0.296875 C 8.554688 0.296875 6.753906 -0.09375 5.390625 -0.875 C 4.035156 -1.65625 3.046875 -2.6875 2.421875 -3.96875 C 1.804688 -5.257812 1.5 -6.644531 1.5 -8.125 L 4.34375 -8.125 C 4.363281 -6.3125 4.863281 -4.878906 5.84375 -3.828125 C 6.820312 -2.773438 8.472656 -2.25 10.796875 -2.25 C 12.835938 -2.25 14.3125 -2.488281 15.21875 -2.96875 C 16.132812 -3.445312 16.59375 -4.238281 16.59375 -5.34375 C 16.59375 -6.476562 16.257812 -7.347656 15.59375 -7.953125 C 14.9375 -8.566406 13.726562 -8.976562 11.96875 -9.1875 L 9.03125 -9.515625 C 6.488281 -9.796875 4.648438 -10.46875 3.515625 -11.53125 C 2.390625 -12.601562 1.828125 -14.019531 1.828125 -15.78125 C 1.828125 -16.820312 2.085938 -17.753906 2.609375 -18.578125 C 3.128906 -19.410156 4 -20.070312 5.21875 -20.5625 C 6.4375 -21.050781 8.097656 -21.296875 10.203125 -21.296875 C 12.023438 -21.296875 13.492188 -21.0625 14.609375 -20.59375 C 15.734375 -20.125 16.59375 -19.507812 17.1875 -18.75 C 17.789062 -17.988281 18.203125 -17.179688 18.421875 -16.328125 C 18.640625 -15.484375 18.75 -14.679688 18.75 -13.921875 L 15.90625 -13.890625 C 15.90625 -14.785156 15.75 -15.597656 15.4375 -16.328125 C 15.125 -17.066406 14.554688 -17.65625 13.734375 -18.09375 C 12.921875 -18.53125 11.742188 -18.75 10.203125 -18.75 C 8.140625 -18.75 6.703125 -18.484375 5.890625 -17.953125 C 5.085938 -17.421875 4.6875 -16.695312 4.6875 -15.78125 C 4.6875 -14.820312 5.039062 -14.023438 5.75 -13.390625 C 6.457031 -12.765625 7.5625 -12.367188 9.0625 -12.203125 L 11.96875 -11.875 C 13.90625 -11.65625 15.414062 -11.273438 16.5 -10.734375 C 17.582031 -10.203125 18.34375 -9.507812 18.78125 -8.65625 C 19.21875 -7.800781 19.4375 -6.796875 19.4375 -5.640625 C 19.4375 -4.796875 19.3125 -4.015625 19.0625 -3.296875 C 18.8125 -2.578125 18.363281 -1.945312 17.71875 -1.40625 C 17.082031 -0.863281 16.203125 -0.441406 15.078125 -0.140625 C 13.960938 0.148438 12.535156 0.296875 10.796875 0.296875 Z M 10.796875 0.296875 "/></g></g></g></svg>