<svg xmlns="http://www.w3.org/2000/svg" xmlns:xlink="http://www.w3.org/1999/xlink" width="900" zoomAndPan="magnify" viewBox="0 0 675 225" height="300" preserveAspectRatio="xMidYMid meet" version="1.0"><defs><g/></defs><g fill="#000000" fill-opacity="1"><g transform="translate(77.041814, 135.443522)"><g><path d="M 51.234375 -23.40625 C 50.640625 -15.71875 48.320312 -9.722656 44.28125 -5.421875 C 40.238281 -1.128906 34.539062 1.015625 27.1875 1.015625 C 23.21875 1.015625 19.734375 0.273438 16.734375 -1.203125 C 13.734375 -2.679688 11.210938 -4.707031 9.171875 -7.28125 C 7.140625 -9.863281 5.601562 -12.832031 4.5625 -16.1875 C 3.519531 -19.550781 3 -23.132812 3 -26.9375 C 3 -30.738281 3.519531 -34.316406 4.5625 -37.671875 C 5.601562 -41.035156 7.140625 -44 9.171875 -46.5625 C 11.210938 -49.125 13.734375 -51.144531 16.734375 -52.625 C 19.734375 -54.101562 23.21875 -54.84375 27.1875 -54.84375 C 32.101562 -54.84375 36.269531 -53.859375 39.6875 -51.890625 C 43.101562 -49.929688 45.78125 -47.125 47.71875 -43.46875 C 49.664062 -39.8125 50.835938 -35.460938 51.234375 -30.421875 L 42.0625 -30.421875 C 41.457031 -35.535156 39.960938 -39.3125 37.578125 -41.75 C 35.203125 -44.195312 31.738281 -45.421875 27.1875 -45.421875 C 23.457031 -45.421875 20.503906 -44.585938 18.328125 -42.921875 C 16.148438 -41.265625 14.585938 -39.035156 13.640625 -36.234375 C 12.703125 -33.441406 12.234375 -30.34375 12.234375 -26.9375 C 12.234375 -23.21875 12.785156 -19.96875 13.890625 -17.1875 C 14.992188 -14.40625 16.644531 -12.242188 18.84375 -10.703125 C 21.039062 -9.171875 23.820312 -8.40625 27.1875 -8.40625 C 31.738281 -8.4375 35.203125 -9.601562 37.578125 -11.90625 C 39.960938 -14.207031 41.457031 -18.039062 42.0625 -23.40625 Z M 51.234375 -23.40625 "/></g></g></g><g fill="#000000" fill-opacity="1"><g transform="translate(131.28176, 135.443522)"><g><path d="M 25.375 0.59375 C 22.300781 0.59375 19.410156 0.113281 16.703125 -0.84375 C 14.003906 -1.800781 11.625 -3.207031 9.5625 -5.0625 C 7.507812 -6.925781 5.898438 -9.195312 4.734375 -11.875 C 3.578125 -14.5625 3 -17.625 3 -21.0625 C 3 -24.5 3.578125 -27.546875 4.734375 -30.203125 C 5.898438 -32.867188 7.507812 -35.117188 9.5625 -36.953125 C 11.625 -38.796875 14.003906 -40.195312 16.703125 -41.15625 C 19.410156 -42.113281 22.300781 -42.59375 25.375 -42.59375 C 28.457031 -42.59375 31.359375 -42.113281 34.078125 -41.15625 C 36.796875 -40.195312 39.1875 -38.796875 41.25 -36.953125 C 43.3125 -35.117188 44.921875 -32.867188 46.078125 -30.203125 C 47.234375 -27.546875 47.8125 -24.5 47.8125 -21.0625 C 47.8125 -17.625 47.234375 -14.5625 46.078125 -11.875 C 44.921875 -9.195312 43.3125 -6.925781 41.25 -5.0625 C 39.1875 -3.207031 36.796875 -1.800781 34.078125 -0.84375 C 31.359375 0.113281 28.457031 0.59375 25.375 0.59375 Z M 12 -21.0625 C 12 -18.382812 12.488281 -15.941406 13.46875 -13.734375 C 14.445312 -11.535156 15.925781 -9.796875 17.90625 -8.515625 C 19.882812 -7.234375 22.375 -6.59375 25.375 -6.59375 C 28.375 -6.59375 30.875 -7.234375 32.875 -8.515625 C 34.875 -9.796875 36.363281 -11.535156 37.34375 -13.734375 C 38.320312 -15.941406 38.8125 -18.382812 38.8125 -21.0625 C 38.8125 -23.738281 38.320312 -26.15625 37.34375 -28.3125 C 36.363281 -30.476562 34.875 -32.203125 32.875 -33.484375 C 30.875 -34.765625 28.375 -35.40625 25.375 -35.40625 C 22.375 -35.40625 19.882812 -34.765625 17.90625 -33.484375 C 15.925781 -32.203125 14.445312 -30.476562 13.46875 -28.3125 C 12.488281 -26.15625 12 -23.738281 12 -21.0625 Z M 12 -21.0625 "/></g></g></g><g fill="#000000" fill-opacity="1"><g transform="translate(182.101707, 135.443522)"><g><path d="M 24.359375 1.203125 C 21.441406 1.203125 18.691406 0.644531 16.109375 -0.46875 C 13.523438 -1.59375 11.242188 -3.144531 9.265625 -5.125 C 7.285156 -7.101562 5.742188 -9.398438 4.640625 -12.015625 C 3.546875 -14.640625 3 -17.453125 3 -20.453125 C 3 -23.421875 3.546875 -26.203125 4.640625 -28.796875 C 5.742188 -31.398438 7.285156 -33.691406 9.265625 -35.671875 C 11.242188 -37.648438 13.523438 -39.195312 16.109375 -40.3125 C 18.691406 -41.4375 21.441406 -42 24.359375 -42 C 28.203125 -42 31.472656 -41.035156 34.171875 -39.109375 C 36.867188 -37.191406 38.78125 -34.035156 39.90625 -29.640625 L 41.703125 -29.640625 L 39.90625 -42 L 39.90625 -53.9375 L 48.90625 -54 L 48.90625 0 L 39.90625 0 L 41.703125 -11.15625 L 39.90625 -11.15625 C 38.78125 -6.757812 36.867188 -3.597656 34.171875 -1.671875 C 31.472656 0.242188 28.203125 1.203125 24.359375 1.203125 Z M 12 -20.453125 C 12 -17.660156 12.488281 -15.171875 13.46875 -12.984375 C 14.445312 -10.804688 15.9375 -9.085938 17.9375 -7.828125 C 19.9375 -6.566406 22.476562 -5.9375 25.5625 -5.9375 C 28.519531 -5.9375 31.066406 -6.535156 33.203125 -7.734375 C 35.347656 -8.941406 37 -10.632812 38.15625 -12.8125 C 39.320312 -14.988281 39.90625 -17.535156 39.90625 -20.453125 C 39.90625 -25.015625 38.644531 -28.554688 36.125 -31.078125 C 33.601562 -33.597656 30.082031 -34.859375 25.5625 -34.859375 C 22.5625 -34.859375 20.050781 -34.25 18.03125 -33.03125 C 16.007812 -31.8125 14.5 -30.117188 13.5 -27.953125 C 12.5 -25.796875 12 -23.296875 12 -20.453125 Z M 12 -20.453125 "/></g></g></g><g fill="#000000" fill-opacity="1"><g transform="translate(234.001657, 135.443522)"><g><path d="M 3 -21.0625 C 3 -25.414062 3.957031 -29.203125 5.875 -32.421875 C 7.800781 -35.648438 10.429688 -38.148438 13.765625 -39.921875 C 17.109375 -41.703125 20.921875 -42.59375 25.203125 -42.59375 C 28.160156 -42.59375 30.988281 -42.160156 33.6875 -41.296875 C 36.382812 -40.441406 38.789062 -39.0625 40.90625 -37.15625 C 43.03125 -35.257812 44.703125 -32.789062 45.921875 -29.75 C 47.148438 -26.71875 47.765625 -23.039062 47.765625 -18.71875 L 12.0625 -18.71875 C 12.5 -14.757812 13.9375 -11.726562 16.375 -9.625 C 18.820312 -7.53125 21.765625 -6.484375 25.203125 -6.484375 C 27.316406 -6.484375 29.3125 -6.878906 31.1875 -7.671875 C 33.070312 -8.472656 34.675781 -9.550781 36 -10.90625 C 37.320312 -12.269531 38.203125 -13.796875 38.640625 -15.484375 L 47.578125 -15.484375 C 46.984375 -12.484375 45.65625 -9.757812 43.59375 -7.3125 C 41.53125 -4.875 38.925781 -2.945312 35.78125 -1.53125 C 32.644531 -0.113281 29.117188 0.59375 25.203125 0.59375 C 22.003906 0.59375 19.050781 0.0351562 16.34375 -1.078125 C 13.644531 -2.203125 11.296875 -3.753906 9.296875 -5.734375 C 7.296875 -7.710938 5.742188 -10.007812 4.640625 -12.625 C 3.546875 -15.25 3 -18.0625 3 -21.0625 Z M 12.546875 -25.921875 L 38.046875 -25.921875 C 37.316406 -28.359375 36.257812 -30.265625 34.875 -31.640625 C 33.5 -33.023438 31.960938 -34.015625 30.265625 -34.609375 C 28.566406 -35.210938 26.878906 -35.515625 25.203125 -35.515625 C 22.160156 -35.515625 19.5 -34.6875 17.21875 -33.03125 C 14.9375 -31.375 13.378906 -29.003906 12.546875 -25.921875 Z M 12.546875 -25.921875 "/></g></g></g><g fill="#000000" fill-opacity="1"><g transform="translate(284.761592, 135.443522)"><g><path d="M 51.234375 -23.40625 C 50.640625 -15.71875 48.320312 -9.722656 44.28125 -5.421875 C 40.238281 -1.128906 34.539062 1.015625 27.1875 1.015625 C 23.21875 1.015625 19.734375 0.273438 16.734375 -1.203125 C 13.734375 -2.679688 11.210938 -4.707031 9.171875 -7.28125 C 7.140625 -9.863281 5.601562 -12.832031 4.5625 -16.1875 C 3.519531 -19.550781 3 -23.132812 3 -26.9375 C 3 -30.738281 3.519531 -34.316406 4.5625 -37.671875 C 5.601562 -41.035156 7.140625 -44 9.171875 -46.5625 C 11.210938 -49.125 13.734375 -51.144531 16.734375 -52.625 C 19.734375 -54.101562 23.21875 -54.84375 27.1875 -54.84375 C 32.101562 -54.84375 36.269531 -53.859375 39.6875 -51.890625 C 43.101562 -49.929688 45.78125 -47.125 47.71875 -43.46875 C 49.664062 -39.8125 50.835938 -35.460938 51.234375 -30.421875 L 42.0625 -30.421875 C 41.457031 -35.535156 39.960938 -39.3125 37.578125 -41.75 C 35.203125 -44.195312 31.738281 -45.421875 27.1875 -45.421875 C 23.457031 -45.421875 20.503906 -44.585938 18.328125 -42.921875 C 16.148438 -41.265625 14.585938 -39.035156 13.640625 -36.234375 C 12.703125 -33.441406 12.234375 -30.34375 12.234375 -26.9375 C 12.234375 -23.21875 12.785156 -19.96875 13.890625 -17.1875 C 14.992188 -14.40625 16.644531 -12.242188 18.84375 -10.703125 C 21.039062 -9.171875 23.820312 -8.40625 27.1875 -8.40625 C 31.738281 -8.4375 35.203125 -9.601562 37.578125 -11.90625 C 39.960938 -14.207031 41.457031 -18.039062 42.0625 -23.40625 Z M 51.234375 -23.40625 "/></g></g></g><g fill="#000000" fill-opacity="1"><g transform="translate(339.001549, 135.443522)"><g><path d="M 3 0 L 3 -42 L 12 -42 L 10.203125 -29.640625 L 12 -29.640625 C 12.675781 -32.640625 13.796875 -35.039062 15.359375 -36.84375 C 16.921875 -38.644531 18.769531 -39.953125 20.90625 -40.765625 C 23.050781 -41.585938 25.300781 -42 27.65625 -42 L 27.65625 -34.796875 C 24.695312 -34.796875 22.035156 -34.414062 19.671875 -33.65625 C 17.316406 -32.894531 15.457031 -31.554688 14.09375 -29.640625 C 12.738281 -27.722656 12.0625 -25.023438 12.0625 -21.546875 L 12 0 Z M 3 0 "/></g></g></g><g fill="#000000" fill-opacity="1"><g transform="translate(367.861533, 135.443522)"><g><path d="M 3 -12 C 3 -16.519531 4.804688 -19.929688 8.421875 -22.234375 C 12.046875 -24.535156 17.457031 -26.1875 24.65625 -27.1875 L 32.875 -28.3125 C 32.875 -29.351562 32.613281 -30.414062 32.09375 -31.5 C 31.570312 -32.582031 30.722656 -33.492188 29.546875 -34.234375 C 28.367188 -34.972656 26.78125 -35.34375 24.78125 -35.34375 C 23.019531 -35.34375 21.359375 -35.09375 19.796875 -34.59375 C 18.234375 -34.09375 16.972656 -33.238281 16.015625 -32.03125 C 15.054688 -30.832031 14.578125 -29.15625 14.578125 -27 L 5.578125 -27 C 5.578125 -29.757812 6.109375 -32.128906 7.171875 -34.109375 C 8.234375 -36.085938 9.660156 -37.707031 11.453125 -38.96875 C 13.253906 -40.226562 15.304688 -41.144531 17.609375 -41.71875 C 19.910156 -42.300781 22.320312 -42.59375 24.84375 -42.59375 C 28.476562 -42.59375 31.414062 -42.0625 33.65625 -41 C 35.894531 -39.945312 37.601562 -38.566406 38.78125 -36.859375 C 39.96875 -35.160156 40.78125 -33.34375 41.21875 -31.40625 C 41.65625 -29.46875 41.875 -27.617188 41.875 -25.859375 L 41.875 -11.9375 C 41.875 -10.132812 42.070312 -8.894531 42.46875 -8.21875 C 42.875 -7.539062 43.675781 -7.203125 44.875 -7.203125 L 45.484375 -7.203125 L 45.484375 0 L 44.875 0 C 42.351562 0 40.394531 -0.347656 39 -1.046875 C 37.601562 -1.742188 36.632812 -2.953125 36.09375 -4.671875 C 35.550781 -6.398438 35.28125 -8.820312 35.28125 -11.9375 L 33.484375 -11.9375 C 32.878906 -9.5 31.753906 -7.328125 30.109375 -5.421875 C 28.472656 -3.523438 26.503906 -2.035156 24.203125 -0.953125 C 21.910156 0.117188 19.484375 0.65625 16.921875 0.65625 C 14.554688 0.65625 12.300781 0.226562 10.15625 -0.625 C 8.019531 -1.488281 6.289062 -2.847656 4.96875 -4.703125 C 3.65625 -6.566406 3 -9 3 -12 Z M 12 -12 C 12 -11 12.25 -9.988281 12.75 -8.96875 C 13.25 -7.945312 14.078125 -7.085938 15.234375 -6.390625 C 16.398438 -5.691406 17.960938 -5.34375 19.921875 -5.34375 C 20.960938 -5.34375 22.082031 -5.539062 23.28125 -5.9375 C 24.476562 -6.34375 25.675781 -7.09375 26.875 -8.1875 C 28.082031 -9.289062 29.210938 -10.878906 30.265625 -12.953125 C 31.328125 -15.035156 32.21875 -17.738281 32.9375 -21.0625 L 24.65625 -19.984375 C 21.09375 -19.535156 18.398438 -18.875 16.578125 -18 C 14.765625 -17.125 13.546875 -16.15625 12.921875 -15.09375 C 12.304688 -14.03125 12 -13 12 -12 Z M 12 -12 "/></g></g></g><g fill="#000000" fill-opacity="1"><g transform="translate(413.941487, 135.443522)"><g><path d="M 28.796875 -39.59375 L 28.796875 -33 L 18.59375 -33 L 18.59375 0 L 9.59375 0 L 9.59375 -33 L 3 -33 L 3 -39.59375 L 9.59375 -39.59375 C 9.59375 -42.59375 9.972656 -45.171875 10.734375 -47.328125 C 11.492188 -49.492188 12.894531 -51.144531 14.9375 -52.28125 C 16.976562 -53.425781 19.921875 -54 23.765625 -54 L 28.796875 -54 L 28.796875 -46.796875 L 23.765625 -46.796875 C 22.242188 -46.796875 21.113281 -46.425781 20.375 -45.6875 C 19.632812 -44.945312 19.148438 -44.015625 18.921875 -42.890625 C 18.703125 -41.773438 18.59375 -40.675781 18.59375 -39.59375 Z M 28.796875 -39.59375 "/></g></g></g><g fill="#000000" fill-opacity="1"><g transform="translate(445.741458, 135.443522)"><g><path d="M 28.796875 -33 L 18.59375 -33 L 18.59375 -12.125 C 18.59375 -10.320312 18.863281 -9.050781 19.40625 -8.3125 C 19.945312 -7.570312 21.195312 -7.203125 23.15625 -7.203125 L 25.796875 -7.203125 L 25.796875 0 L 23.15625 0 C 20.28125 0 17.941406 -0.195312 16.140625 -0.59375 C 14.335938 -1 12.96875 -1.648438 12.03125 -2.546875 C 11.09375 -3.453125 10.453125 -4.691406 10.109375 -6.265625 C 9.765625 -7.847656 9.59375 -9.800781 9.59375 -12.125 L 9.59375 -33 L 3 -33 L 3 -39.59375 L 9.59375 -39.59375 L 9.59375 -53.9375 L 18.59375 -53.9375 L 18.59375 -39.59375 L 28.796875 -39.59375 Z M 28.796875 -33 "/></g></g></g><g fill="#000000" fill-opacity="1"><g transform="translate(473.941393, 135.443522)"><g><path d="M 3 -21.0625 C 3 -25.414062 3.957031 -29.203125 5.875 -32.421875 C 7.800781 -35.648438 10.429688 -38.148438 13.765625 -39.921875 C 17.109375 -41.703125 20.921875 -42.59375 25.203125 -42.59375 C 28.160156 -42.59375 30.988281 -42.160156 33.6875 -41.296875 C 36.382812 -40.441406 38.789062 -39.0625 40.90625 -37.15625 C 43.03125 -35.257812 44.703125 -32.789062 45.921875 -29.75 C 47.148438 -26.71875 47.765625 -23.039062 47.765625 -18.71875 L 12.0625 -18.71875 C 12.5 -14.757812 13.9375 -11.726562 16.375 -9.625 C 18.820312 -7.53125 21.765625 -6.484375 25.203125 -6.484375 C 27.316406 -6.484375 29.3125 -6.878906 31.1875 -7.671875 C 33.070312 -8.472656 34.675781 -9.550781 36 -10.90625 C 37.320312 -12.269531 38.203125 -13.796875 38.640625 -15.484375 L 47.578125 -15.484375 C 46.984375 -12.484375 45.65625 -9.757812 43.59375 -7.3125 C 41.53125 -4.875 38.925781 -2.945312 35.78125 -1.53125 C 32.644531 -0.113281 29.117188 0.59375 25.203125 0.59375 C 22.003906 0.59375 19.050781 0.0351562 16.34375 -1.078125 C 13.644531 -2.203125 11.296875 -3.753906 9.296875 -5.734375 C 7.296875 -7.710938 5.742188 -10.007812 4.640625 -12.625 C 3.546875 -15.25 3 -18.0625 3 -21.0625 Z M 12.546875 -25.921875 L 38.046875 -25.921875 C 37.316406 -28.359375 36.257812 -30.265625 34.875 -31.640625 C 33.5 -33.023438 31.960938 -34.015625 30.265625 -34.609375 C 28.566406 -35.210938 26.878906 -35.515625 25.203125 -35.515625 C 22.160156 -35.515625 19.5 -34.6875 17.21875 -33.03125 C 14.9375 -31.375 13.378906 -29.003906 12.546875 -25.921875 Z M 12.546875 -25.921875 "/></g></g></g><g fill="#000000" fill-opacity="1"><g transform="translate(524.70134, 135.443522)"><g><path d="M 3 0 L 3 -42 L 12 -42 L 10.203125 -29.640625 L 12 -29.640625 C 12.675781 -32.640625 13.796875 -35.039062 15.359375 -36.84375 C 16.921875 -38.644531 18.769531 -39.953125 20.90625 -40.765625 C 23.050781 -41.585938 25.300781 -42 27.65625 -42 L 27.65625 -34.796875 C 24.695312 -34.796875 22.035156 -34.414062 19.671875 -33.65625 C 17.316406 -32.894531 15.457031 -31.554688 14.09375 -29.640625 C 12.738281 -27.722656 12.0625 -25.023438 12.0625 -21.546875 L 12 0 Z M 3 0 "/></g></g></g><g fill="#000000" fill-opacity="1"><g transform="translate(552.961333, 135.443522)"><g><path d="M 21.421875 0.59375 C 17.859375 0.59375 14.882812 0.144531 12.5 -0.75 C 10.125 -1.644531 8.242188 -2.882812 6.859375 -4.46875 C 5.484375 -6.050781 4.492188 -7.851562 3.890625 -9.875 C 3.296875 -11.894531 3 -14.023438 3 -16.265625 L 11.765625 -16.265625 C 11.796875 -13.859375 12.09375 -11.953125 12.65625 -10.546875 C 13.21875 -9.148438 14.195312 -8.148438 15.59375 -7.546875 C 17 -6.953125 18.941406 -6.65625 21.421875 -6.65625 C 24.140625 -6.65625 26.269531 -6.863281 27.8125 -7.28125 C 29.351562 -7.707031 30.441406 -8.3125 31.078125 -9.09375 C 31.722656 -9.875 32.046875 -10.78125 32.046875 -11.8125 C 32.046875 -13.457031 31.460938 -14.6875 30.296875 -15.5 C 29.140625 -16.320312 27.539062 -16.894531 25.5 -17.21875 L 18.1875 -18.421875 C 13.144531 -19.222656 9.539062 -20.832031 7.375 -23.25 C 5.21875 -25.664062 4.140625 -28.632812 4.140625 -32.15625 C 4.140625 -34.039062 4.660156 -35.769531 5.703125 -37.34375 C 6.742188 -38.925781 8.484375 -40.195312 10.921875 -41.15625 C 13.359375 -42.113281 16.65625 -42.59375 20.8125 -42.59375 C 24.570312 -42.59375 27.660156 -42.144531 30.078125 -41.25 C 32.503906 -40.351562 34.394531 -39.171875 35.75 -37.703125 C 37.113281 -36.242188 38.066406 -34.65625 38.609375 -32.9375 C 39.148438 -31.21875 39.421875 -29.519531 39.421875 -27.84375 L 30.65625 -27.78125 C 30.65625 -30.457031 29.9375 -32.492188 28.5 -33.890625 C 27.0625 -35.296875 24.5 -36 20.8125 -36 C 18.539062 -36 16.753906 -35.796875 15.453125 -35.390625 C 14.148438 -34.992188 13.238281 -34.457031 12.71875 -33.78125 C 12.195312 -33.101562 11.9375 -32.34375 11.9375 -31.5 C 11.9375 -30.257812 12.457031 -29.054688 13.5 -27.890625 C 14.539062 -26.734375 16.222656 -25.976562 18.546875 -25.625 L 25.5 -24.484375 C 29.175781 -23.921875 32.101562 -23.078125 34.28125 -21.953125 C 36.46875 -20.835938 38.039062 -19.410156 39 -17.671875 C 39.957031 -15.929688 40.4375 -13.800781 40.4375 -11.28125 C 40.4375 -9.914062 40.144531 -8.535156 39.5625 -7.140625 C 38.988281 -5.742188 37.988281 -4.460938 36.5625 -3.296875 C 35.144531 -2.140625 33.207031 -1.203125 30.75 -0.484375 C 28.289062 0.234375 25.179688 0.59375 21.421875 0.59375 Z M 21.421875 0.59375 "/></g></g></g><g fill="#a678fe" fill-opacity="1"><g transform="translate(34.689626, 140.434792)"><g><path d="M 4 -30.59375 L 4 -39.296875 L 11.296875 -39.296875 L 11.296875 -50 C 11.296875 -56.53125 13.007812 -61.492188 16.4375 -64.890625 C 19.875 -68.296875 24.828125 -70 31.296875 -70 L 34.5 -70 L 34.5 -60.296875 L 22.90625 -60.296875 L 22.90625 -43.703125 C 22.90625 -41.035156 22.269531 -39.015625 21 -37.640625 C 19.726562 -36.273438 18.257812 -35.59375 16.59375 -35.59375 L 16.59375 -34.296875 C 18.195312 -34.296875 19.648438 -33.613281 20.953125 -32.25 C 22.253906 -30.882812 22.90625 -28.867188 22.90625 -26.203125 L 22.90625 -10 L 34.5 -10 L 34.5 0 L 31.296875 0 C 24.828125 0 19.875 -1.710938 16.4375 -5.140625 C 13.007812 -8.578125 11.296875 -13.53125 11.296875 -20 L 11.296875 -30.59375 Z M 4 -30.59375 "/></g></g></g><g fill="#a678fe" fill-opacity="1"><g transform="translate(602.013023, 146.521069)"><g><path d="M 35.5 -30.59375 L 28.203125 -30.59375 L 28.203125 -20 C 28.203125 -13.53125 26.5 -8.578125 23.09375 -5.140625 C 19.695312 -1.710938 14.734375 0 8.203125 0 L 5 0 L 5 -10 L 16.59375 -10 L 16.59375 -26.203125 C 16.59375 -28.867188 17.242188 -30.882812 18.546875 -32.25 C 19.847656 -33.613281 21.300781 -34.296875 22.90625 -34.296875 L 22.90625 -35.59375 C 21.238281 -35.59375 19.769531 -36.273438 18.5 -37.640625 C 17.226562 -39.015625 16.59375 -41.035156 16.59375 -43.703125 L 16.59375 -60.296875 L 5 -60.296875 L 5 -70 L 8.203125 -70 C 14.734375 -70 19.695312 -68.296875 23.09375 -64.890625 C 26.5 -61.492188 28.203125 -56.53125 28.203125 -50 L 28.203125 -39.296875 L 35.5 -39.296875 Z M 35.5 -30.59375 "/></g></g></g></svg>